<svg id="Camada_1" data-name="Camada 1" xmlns="http://www.w3.org/2000/svg" viewBox="0 0 18.54 18.84">
<defs></defs>
  <path 
    class="cls-1" d="M4.83,11.15c1-.64,1.16-2.33.27-3.77L5,7.3c0-.11-.1-.21-.16-.32C4,5.54,2.42,4.9,1.38,5.54S.22,7.87,1.11,9.32l.06.08c.05.1.1.21.16.31C2.22,11.15,3.79,11.8,4.83,11.15Z" 
    fill="#ff71a0"
    transform="translate(-0.51 0)"/>
  <path 
    class="cls-1" d="M12,6.53c1.23,0,2.27-1.29,2.33-3a3.63,3.63,0,0,0-.59-2.23A2.09,2.09,0,0,0,12,0C10.79,0,9.75,1.29,9.68,3a3.74,3.74,0,0,0,.59,2.22A2.1,2.1,0,0,0,12,6.53Z" 
    fill="#ff71a0"
    transform="translate(-0.51 0)"/>
  <path 
    class="cls-1" d="M18.55,4.82a1.89,1.89,0,0,0-1.19-1.11c-1.18-.33-2.5.73-3,2.36a3.43,3.43,0,0,0,.35,2.83A1.88,1.88,0,0,0,15.94,10c1.17.33,2.5-.73,3-2.37A3.4,3.4,0,0,0,18.55,4.82Z" 
    fill="#ff71a0"
    transform="translate(-0.51 0)"/>
  <path 
    class="cls-1" d="M5,5.42A2.46,2.46,0,0,0,7.61,7C8.8,6.71,9.41,5.13,9,3.49a3.75,3.75,0,0,0-.54-1.22A2.46,2.46,0,0,0,5.86.67C4.68,1,4.06,2.56,4.48,4.2A4.23,4.23,0,0,0,5,5.42Z" 
    fill="#ff71a0"
    transform="translate(-0.51 0)"/>
  <path 
    class="cls-1" d="M17.91,13.14c-.45-.44-.87-.86-1.27-1.28A20.85,20.85,0,0,1,14,8.57c-.9-1.24-2.44-1.5-4.22-1.42h0C8,7.45,6.57,8,6,9.45a21.77,21.77,0,0,1-1.89,3.79c-.3.49-.62,1-1,1.52A2.2,2.2,0,0,0,3.37,17a3.44,3.44,0,0,0,4.56,1.56,10.82,10.82,0,0,1,3.13-1.16h0a10.77,10.77,0,0,1,3.31.45c3.27.58,5-2.71,3.8-4.24A1.76,1.76,0,0,0,17.91,13.14Zm-7.68-2a3.26,3.26,0,0,1,.2.5,2.23,2.23,0,0,1,1.51-2.15,1.52,1.52,0,0,1,1.61.42,2.53,2.53,0,0,1,.13,1c-.12,1.38-1.09,3.11-2.95,5.2h0A13.45,13.45,0,0,1,7.26,12.7,3.56,3.56,0,0,1,7,12c-.37-1.25.12-2.16,1.51-2.19a2.24,2.24,0,0,1,1.54.93Z" 
    fill="#ff71a0"
    transform="translate(-0.51 0)"/>
</svg>