<svg id="Camada_1" data-name="Camada 1" xmlns="http://www.w3.org/2000/svg" 
viewBox="0 0 18.54 18.84"><defs>
</defs>
<path class="cls-1" d="M-17,8.67c1-.64,1.16-2.33.27-3.77l-.06-.08c0-.11-.1-.21-.16-.32-.9-1.44-2.47-2.09-3.51-1.44s-1.15,2.33-.26,3.78l.06.08c.05.1.1.21.16.31C-19.58,8.67-18,9.32-17,8.67Z" 
fill="#ff71a0"
transform="translate(21.29 2.48)"/>
<path class="cls-1" d="M-9.8,4.05c1.23,0,2.27-1.29,2.33-3a3.63,3.63,0,0,0-.59-2.23A2.09,2.09,0,0,0-9.79-2.48c-1.22,0-2.26,1.29-2.33,3a3.74,3.74,0,0,0,.59,2.22A2.12,2.12,0,0,0-9.8,4.05Z" 
fill="#ff71a0"
transform="translate(21.29 2.48)"/>
<path class="cls-1" d="M-3.25,2.34A1.87,1.87,0,0,0-4.44,1.23C-5.62.9-6.94,2-7.4,3.59A3.43,3.43,0,0,0-7,6.42,1.92,1.92,0,0,0-5.87,7.54c1.18.33,2.51-.73,3-2.37A3.4,3.4,0,0,0-3.25,2.34Z" 
fill="#ff71a0"
transform="translate(21.29 2.48)"/>
<path class="cls-1" d="M-16.78,2.93a2.45,2.45,0,0,0,2.59,1.6c1.19-.3,1.8-1.88,1.38-3.52a3.75,3.75,0,0,0-.54-1.22,2.45,2.45,0,0,0-2.59-1.6c-1.18.31-1.8,1.88-1.38,3.53A4.17,4.17,0,0,0-16.78,2.93Z" 
fill="#ff71a0"
transform="translate(21.29 2.48)"/>
<path class="cls-1" d="M-3.89,10.66c-.45-.44-.87-.87-1.27-1.28A20.85,20.85,0,0,1-7.82,6.09c-.9-1.24-2.44-1.5-4.22-1.42h0c-1.75.3-3.2.89-3.8,2.3a22.5,22.5,0,0,1-1.89,3.79c-.3.49-.62,1-1,1.52a2.18,2.18,0,0,0,.27,2.19A3.43,3.43,0,0,0-13.87,16a10.82,10.82,0,0,1,3.13-1.16h0a11,11,0,0,1,3.31.46c3.27.58,5-2.72,3.8-4.24A1.76,1.76,0,0,0-3.89,10.66Zm-7.68-2a3.26,3.26,0,0,1,.2.5A2.24,2.24,0,0,1-9.86,7a1.55,1.55,0,0,1,1.61.43,2.37,2.37,0,0,1,.12,1c-.11,1.38-1.08,3.11-2.94,5.2h0a13.13,13.13,0,0,1-3.47-3.37,4.42,4.42,0,0,1-.3-.68c-.36-1.25.13-2.16,1.52-2.19a2.24,2.24,0,0,1,1.54.93Z" 
fill="#ff71a0"
transform="translate(21.29 2.48)"/>
</svg>